<svg width="20" height="17" viewBox="0 0 20 17" fill="none" xmlns="http://www.w3.org/2000/svg">
<g style="mix-blend-mode:lighten" filter="url(#filter0_d_328_12)">
<path d="M9.83337 4.16683C8.91671 4.16683 8.16671 4.91683 8.16671 5.83349C8.16671 6.75016 8.91671 7.50016 9.83337 7.50016C10.75 7.50016 11.5 6.75016 11.5 5.83349C11.5 4.91683 10.75 4.16683 9.83337 4.16683ZM9.83337 0.000160217C12.5584 0.000160217 15.6667 2.05016 15.6667 5.95849C15.6667 8.44183 13.8917 11.0585 10.3417 13.7835C10.0417 14.0168 9.62504 14.0168 9.32504 13.7835C5.77504 11.0502 4.00004 8.44183 4.00004 5.95849C4.00004 2.05016 7.10837 0.000160217 9.83337 0.000160217Z" fill="#9D99E4"/>
</g>
<defs>
<filter id="filter0_d_328_12" x="3.8147e-05" y="0.000160217" width="19.6667" height="21.9583" filterUnits="userSpaceOnUse" color-interpolation-filters="sRGB">
<feFlood flood-opacity="0" result="BackgroundImageFix"/>
<feColorMatrix in="SourceAlpha" type="matrix" values="0 0 0 0 0 0 0 0 0 0 0 0 0 0 0 0 0 0 127 0" result="hardAlpha"/>
<feOffset dy="4"/>
<feGaussianBlur stdDeviation="2"/>
<feComposite in2="hardAlpha" operator="out"/>
<feColorMatrix type="matrix" values="0 0 0 0 0 0 0 0 0 0 0 0 0 0 0 0 0 0 0.25 0"/>
<feBlend mode="normal" in2="BackgroundImageFix" result="effect1_dropShadow_328_12"/>
<feBlend mode="normal" in="SourceGraphic" in2="effect1_dropShadow_328_12" result="shape"/>
</filter>
</defs>
</svg>
